<svg width="516" height="151" viewBox="0 0 516 151" fill="none" xmlns="http://www.w3.org/2000/svg">
<path d="M362.354 120V28.9375H367.104V120H362.354ZM382.417 120V62.75H387.167V120H382.417ZM381.229 41C381.229 40 381.542 39.1667 382.167 38.5C382.792 37.7917 383.688 37.4375 384.854 37.4375C385.979 37.4375 386.834 37.7708 387.417 38.4375C388.042 39.1042 388.354 39.9583 388.354 41C388.354 42.0417 388.042 42.9167 387.417 43.625C386.792 44.3333 385.917 44.6875 384.792 44.6875C383.625 44.6875 382.729 44.3333 382.104 43.625C381.521 42.9167 381.229 42.0417 381.229 41ZM402.417 120V62.75H406.917L406.979 72.0625C408.813 68.8958 411.438 66.3542 414.854 64.4375C418.271 62.4792 422.229 61.5 426.729 61.5C432.354 61.5 436.792 63.0208 440.042 66.0625C443.334 69.0625 444.979 74.0208 444.979 80.9375V120H440.229V81.4375C440.229 75.8958 438.917 71.9167 436.292 69.5C433.667 67.0833 430 65.875 425.292 65.875C421.084 65.875 417.417 66.9792 414.292 69.1875C411.167 71.3958 408.792 74.1458 407.167 77.4375V120H402.417ZM459.417 120V28.9375H464.167V92.25L492.417 62.75H498.354L464.167 98.3125V120H459.417ZM495.667 120L472.354 86.6875L475.542 83.1875L501.167 120H495.667Z" fill="#334155"/>
<ellipse cx="348.292" cy="113" rx="6.5" ry="7" fill="#A78BFA"/>
<path d="M200.292 48.5C188.292 45 169.292 90 161.792 102L165.292 64.5C169.358 45.7104 176.792 34.5 190.792 33L200.292 48.5Z" fill="black"/>
<path fill-rule="evenodd" clip-rule="evenodd" d="M31.864 117.768C36.9067 119.835 42.6107 120.868 48.976 120.868C55.5067 120.868 61.1693 119.669 65.964 117.272C70.7587 114.875 74.396 111.651 76.876 107.6C79.4387 103.549 80.72 99.044 80.72 94.084C80.72 88.876 79.4387 84.6187 76.876 81.312C74.3133 78.0053 71.2547 75.484 67.7 73.748C64.228 72.012 59.6813 70.1933 54.06 68.292C48.4387 66.4733 44.3053 64.7787 41.66 63.208C39.0147 61.6373 37.692 59.4467 37.692 56.636C37.692 54.0733 38.4773 52.1307 40.048 50.808C41.6187 49.4027 43.6853 48.7 46.248 48.7C49.224 48.7 51.6627 49.5267 53.564 51.18C55.4653 52.7507 56.4987 54.9413 56.664 57.752H79.604C79.1907 49.568 76.0493 43.2027 70.18 38.656C64.3107 34.0267 56.5813 31.712 46.992 31.712C37.568 31.712 29.9213 34.0267 24.052 38.656C18.1827 43.2027 15.248 49.5267 15.248 57.628C15.248 63.084 16.5293 67.5067 19.092 70.896C21.6547 74.2853 24.7133 76.848 28.268 78.584C31.8227 80.32 36.4107 82.056 42.032 83.792C45.9173 84.9493 48.8933 85.9827 50.96 86.892C53.1093 87.8013 54.8867 88.9587 56.292 90.364C57.78 91.7693 58.524 93.5467 58.524 95.696C58.524 98.2587 57.6147 100.284 55.796 101.772C53.9773 103.177 51.4973 103.88 48.356 103.88C45.2973 103.88 42.8173 103.053 40.916 101.4C39.0147 99.664 37.8987 97.184 37.568 93.96H15C15.1653 99.664 16.736 104.541 19.712 108.592C22.7707 112.643 26.8213 115.701 31.864 117.768ZM102.449 115.164C109.31 118.967 116.833 120.868 125.017 120.868C133.201 120.868 140.682 118.967 147.461 115.164C154.24 111.361 159.613 106.071 163.581 99.292C167.549 92.4307 169.533 84.7427 169.533 76.228C169.533 67.7133 167.549 60.0667 163.581 53.288C159.696 46.5093 154.322 41.2187 147.461 37.416C140.682 33.6133 133.201 31.712 125.017 31.712C116.833 31.712 109.31 33.6133 102.449 37.416C95.6704 41.2187 90.2557 46.5093 86.2051 53.288C82.2371 60.0667 80.2531 67.7133 80.2531 76.228C80.2531 84.7427 82.2371 92.4307 86.2051 99.292C90.2557 106.071 95.6704 111.361 102.449 115.164ZM141.633 94.58C137.5 99.2093 131.961 101.524 125.017 101.524C117.99 101.524 112.369 99.2507 108.153 94.704C104.02 90.0747 101.953 83.916 101.953 76.228C101.953 68.4573 104.02 62.2987 108.153 57.752C112.369 53.2053 117.99 50.932 125.017 50.932C131.961 50.932 137.5 53.2467 141.633 57.876C145.849 62.4227 147.957 68.54 147.957 76.228C147.957 83.8333 145.849 89.9507 141.633 94.58ZM185.794 117.768C190.836 119.835 196.54 120.868 202.906 120.868C209.436 120.868 215.099 119.669 219.894 117.272C224.688 114.875 228.326 111.651 230.806 107.6C233.368 103.549 234.65 99.044 234.65 94.084C234.65 88.876 233.368 84.6187 230.806 81.312C228.243 78.0053 225.184 75.484 221.63 73.748C218.158 72.012 213.611 70.1933 207.99 68.292C202.368 66.4733 198.235 64.7787 195.59 63.208C192.944 61.6373 191.622 59.4467 191.622 56.636C191.622 56.5183 191.623 56.4019 191.627 56.2868C190.262 57.6393 188.921 59.2294 187.622 60.9805C184.06 65.7803 180.959 71.5942 178.688 76.4867C179.799 77.2846 180.968 77.9837 182.198 78.584C185.752 80.32 190.34 82.056 195.962 83.792C199.847 84.9493 202.823 85.9827 204.89 86.892C207.039 87.8013 208.816 88.9587 210.222 90.364C211.71 91.7693 212.454 93.5467 212.454 95.696C212.454 98.2587 211.544 100.284 209.726 101.772C207.907 103.177 205.427 103.88 202.286 103.88C199.227 103.88 196.747 103.053 194.846 101.4C192.944 99.664 191.828 97.184 191.498 93.96H168.93C169.095 99.664 170.666 104.541 173.642 108.592C176.7 112.643 180.751 115.701 185.794 117.768ZM176.293 74.5275C175.125 73.4461 174.034 72.2356 173.022 70.896C170.459 67.5067 169.178 63.084 169.178 57.628C169.178 49.5267 172.112 43.2027 177.982 38.656C183.851 34.0267 191.498 31.712 200.922 31.712C210.511 31.712 218.24 34.0267 224.11 38.656C229.979 43.2027 233.12 49.568 233.534 57.752H210.594C210.428 54.9413 209.395 52.7507 207.494 51.18C206.167 50.0261 204.578 49.2749 202.728 48.9263C201.258 48.5602 199.809 48.5525 198.399 48.8242C197.165 49.0055 196.071 49.3854 195.117 49.9639C194.554 50.2445 194.002 50.5634 193.46 50.9148C190.48 52.8476 187.699 55.8412 185.212 59.193C181.667 63.9715 178.59 69.657 176.293 74.5275ZM258.983 120V32.952H237.779V120H258.983ZM283.029 115.164C289.89 118.967 297.413 120.868 305.597 120.868C313.781 120.868 321.262 118.967 328.041 115.164C334.82 111.361 340.193 106.071 344.161 99.292C348.129 92.4307 350.113 84.7427 350.113 76.228C350.113 67.7133 348.129 60.0667 344.161 53.288C340.276 46.5093 334.902 41.2187 328.041 37.416C321.262 33.6133 313.781 31.712 305.597 31.712C297.413 31.712 289.89 33.6133 283.029 37.416C276.25 41.2187 270.836 46.5093 266.785 53.288C262.817 60.0667 260.833 67.7133 260.833 76.228C260.833 84.7427 262.817 92.4307 266.785 99.292C270.836 106.071 276.25 111.361 283.029 115.164ZM322.213 94.58C318.08 99.2093 312.541 101.524 305.597 101.524C298.57 101.524 292.949 99.2507 288.733 94.704C284.6 90.0747 282.533 83.916 282.533 76.228C282.533 68.4573 284.6 62.2987 288.733 57.752C292.949 53.2053 298.57 50.932 305.597 50.932C312.541 50.932 318.08 53.2467 322.213 57.876C326.429 62.4227 328.537 68.54 328.537 76.228C328.537 83.8333 326.429 89.9507 322.213 94.58Z" fill="black"/>
</svg>
